<?xml version="1.0" encoding="UTF-8"?>
<svg id="Layer_1" data-name="Layer 1" xmlns="http://www.w3.org/2000/svg" version="1.1" xmlns:xlink="http://www.w3.org/1999/xlink" viewBox="0 0 3061.4 3061.4">
  <defs>
    <style>
      .cls-1 {
        fill: #000;
      }

      .cls-1, .cls-2, .cls-3 {
        stroke-width: 0px;
      }

      .cls-2 {
        fill: #0e7467;
      }

      .cls-3 {
        fill: #0e736b;
      }
    </style>
  </defs>
  <g>
    <path class="cls-1" d="M1208.3,1255.6v61.8c0,14.1.2,23.9.7,29.4.4,4.2,1,6.8,1.9,7.7.9.9,3.5,1.6,7.9,2l5.3.4v5.6c-6-.4-11.3-.6-16.1-.6s-11,.2-22.9.6v-5.6h5.9c3.5,0,5.9-.5,6.9-1.6,1.1-1.1,1.8-3.2,2-6.3.6-6.6.9-15.5.9-26.7v-44.4c0-8.3,0-16.6-.2-24.8-.1-3.5-.5-5.8-1.3-7.1-.7-1.3-1.8-2.4-3.2-3.4-1.4-1-3.4-1.5-6-1.5h-5.1v-5.6c6.9.4,12.2.6,15.9.6s8.2-.2,12.9-.6c5.4,7.2,10.5,14.2,15.2,21,4.8,6.8,9.7,13.7,14.8,20.6l28,37.5c10.1,13.5,17.4,22.8,21.8,28.1v-57.4c0-24-.4-37.1-1.2-39.4-.8-2.2-3.9-3.6-9.4-4.2l-6.1-.6v-5.6c8.8.4,15.6.6,20.4.6s11.6-.2,19.6-.6v5.6h-6.3c-5.1,0-8,1.8-8.7,5.5-.5,2.4-.7,15.5-.7,39.1v40.3c0,10.8.4,23.8,1.3,38.9-7.4-1.3-11.7-2.2-12.9-2.7-1.2-.6-2.3-1.5-3.4-2.8-6.1-7.3-12.4-15.5-19.1-24.4l-58.8-79.4Z"/>
    <path class="cls-1" d="M1340.7,1319.4c.3,11.7,3,20.6,8.2,26.7,5.2,6.1,12.1,9.1,20.6,9.1s7.6-.7,11.3-2.1c3.8-1.4,7.5-3.4,11.2-6.2l1.4,1.3-2.6,7.5c-4.5,2.9-9.2,5-14,6.4-4.8,1.4-9.7,2.1-14.8,2.1-11.1,0-20-3.8-26.8-11.5-6.8-7.7-10.2-18-10.2-31.1s1.9-18.7,5.7-26c2.5-4.8,7.1-9.3,13.9-13.4,6.8-4.1,13.3-6.2,19.7-6.2,9.6,0,17.3,3.1,22.9,9.3,5.6,6.2,8.5,14.9,8.5,26l-.2,5.3c-3.6,1-7,1.6-10.3,1.9-5.8.5-13.9.7-24.2.7h-20.4ZM1340.9,1312.7c8.4.4,17.8.6,28,.6s8-.2,11.9-.6v-5c0-5.2-1-10.2-2.9-14.9-1.2-2.9-3.3-5.3-6.3-7.3-3-1.9-6.5-2.9-10.4-2.9-6.1,0-11,2.4-14.6,7.3-3.7,4.9-5.5,12.5-5.6,22.8Z"/>
    <path class="cls-1" d="M1443.3,1363.4h-8.3c-4.6-17.2-9.8-35.9-15.5-56.2l-5.2-17.9c-.7-2-1.8-3.5-3.1-4.5-1.4-1-3-1.6-4.8-1.6h-4.1v-5.2c8.7.4,15.3.6,20,.6s11.2-.2,20-.6v5.2h-4.4c-3.4,0-5.7.4-6.9,1.2-1,.6-1.5,1.5-1.5,2.9,0,2.9,4.7,21.4,14,55.3l17.7-42.2c2.7-6.6,5.7-14.5,9.2-24h4.1c2.3,7.3,4.8,14.2,7.3,20.9l16.8,46.7,12.5-36.6c2.4-7.2,4-12.6,4.7-16.2.3-1.5.4-2.7.4-3.6,0-1.4-.6-2.5-1.7-3.3-1.1-.8-2.8-1.2-5.2-1.2h-5.4v-5.2c7.1.4,13.5.6,19,.6s9.4-.2,13.9-.6v5.2h-3.7c-1.9,0-3.7,1.1-5.4,3.2-1.7,2.1-6.4,13-14.1,32.8-6.4,16.5-11.4,31.2-15,44.3h-7.9c-2.5-7.4-6.4-18.8-12-34l-10.4-28.7c-7.6,17.7-13.8,32.5-18.5,44.7-2.1,5.5-4.2,11.5-6.2,18Z"/>
    <path class="cls-1" d="M1706,1254.7l-24.3,55.3c-9.1,20.8-16.6,38.9-22.4,54.4h-3.3c-2-5.3-7.8-18.9-17.3-40.9l-29.3-66.3v69.1c0,16.1.6,25.2,1.8,27.4s4.8,3.3,11,3.3h3v5.6c-7.6-.4-13.8-.6-18.5-.6s-10.3.2-20.6.6v-5.6h5.3c3.6,0,6-.6,7.2-1.7,1.2-1.1,1.9-3.2,2.2-6.2.7-8.3,1.1-17.3,1.1-27v-50.6c0-12.2-.2-20.3-.7-24.2-.2-2-1-3.6-2.4-4.6-1.4-1.1-4.2-1.6-8.3-1.6h-4.3v-5.6c9.5.4,15.5.6,17.9.6s7.5-.2,13.2-.6c6.6,16,14.2,33.7,22.8,53l21.5,48.4,19.9-44.8c7-15.7,14.9-34.5,23.9-56.6,6.8.4,11.6.6,14.4.6s9-.2,17.4-.6v5.6h-5.3c-4.8,0-7.8.9-8.8,2.7-1.1,1.8-1.6,8.4-1.6,19.6v65.3c0,14.5.6,22.9,1.7,25,1.1,2.1,4.3,3.2,9.4,3.2h4.7v5.6c-7.6-.4-14.8-.6-21.7-.6s-15.6.2-24,.6v-5.6h5.4c4.3,0,6.9-1,7.8-3.1.9-2.1,1.3-10.9,1.3-26.5v-72.7Z"/>
    <path class="cls-1" d="M1830.2,1319.7c0-8.2,1.7-15.7,5.2-22.3,3.5-6.6,8.4-11.8,14.7-15.6,6.3-3.8,13.5-5.6,21.5-5.6,11.6,0,20.9,3.8,27.9,11.3,7,7.5,10.5,17.5,10.5,30s-4.6,26.5-13.7,35.2c-8.1,7.8-17.9,11.7-29.2,11.7s-19.8-4-26.6-12c-6.8-8-10.3-18.9-10.3-32.7ZM1845.5,1313.4c0,12.3,2.3,22.8,6.9,31.5,4.6,8.7,11.2,13.1,19.9,13.1s11.9-2.7,16-8.2c4.1-5.5,6.1-13.8,6.1-25s-1.2-16.8-3.6-23.4c-2.4-6.6-5.6-11.4-9.5-14.4-3.9-3-8.3-4.5-13.2-4.5s-8.2,1.2-11.7,3.6c-3.5,2.4-6,5.6-7.6,9.6-2.2,5.4-3.4,11.3-3.4,17.7Z"/>
    <path class="cls-1" d="M1945.2,1293.3l12.4-12c1.5-1.4,3-2.5,4.7-3.1,3.6-1.3,7.2-2,10.8-2,5.8,0,10.9,1.3,15.1,3.9,4.3,2.6,7.3,6,9.2,10.1,1.9,4.1,2.8,10.6,2.8,19.4l-.3,28.2c0,9.7.4,15.3,1.1,16.8,1,1.9,3,2.9,6,2.9h5.8v5.2c-5.8-.4-10.8-.6-15.1-.6s-8.6.2-13.3.6c1-11.6,1.6-27.3,1.6-47.1s-.6-13.6-1.9-17c-1.3-3.3-3.4-6-6.5-8-3-2-6.7-3-10.9-3s-9.8,1.5-13.5,4.4c-3.7,2.9-6,6.1-6.8,9.7-.5,2.3-.8,8.4-.8,18.2s0,21,.2,30.4c0,2.8.4,4.6,1.2,5.3,1.4,1.4,3.6,2.1,6.7,2.1h5.8v5.2c-9.2-.4-16.6-.6-22-.6s-12.4.2-19.7.6v-5.2h5.9c4,0,6.4-1,7.1-3.1.7-2.1,1-14.4,1-37.1s-.1-18.1-.3-23.9c-.1-1.9-.5-3.2-1.3-3.9-.8-.7-2.9-1.1-6.5-1.1h-5.9v-5.2c4.7-.6,8.9-1.4,12.6-2.4,3.7-1,7.9-2.6,12.5-4.6.5-.2,1-.4,1.4-.4.9,0,1.3.7,1.3,2.1v3.4c0,0-.2,12.1-.2,12.1Z"/>
    <path class="cls-1" d="M2126.3,1297.1l5-8.1c5.6.3,10,.4,13.1.4l10.3-.3c10.1-.3,18.6-.5,25.3-.5-.9,5.1-1.5,9.4-1.9,12.9-5.8-1-13.7-1.7-23.5-2.1.7,3.1,1,5.7,1,7.9,0,4.8-1,9.8-3.1,14.8-2.1,5.1-5.7,10.5-10.8,16.4,5.6,4.5,10.8,7.7,15.9,9.6,5,1.9,9.6,2.9,13.7,2.9s5.2-1.4,9.4-4.3l1.2,4.3c-6.9,5.4-11.7,9.4-14.5,12.2-2.2.8-4.4,1.2-6.7,1.2-8.3,0-18.1-4.9-29.3-14.8-6.3,5.6-12,9.5-17.1,11.6-5.1,2.1-10.7,3.2-16.8,3.2-10,0-18.2-3.5-24.6-10.4-6.4-6.9-9.6-15.5-9.6-25.7s2.3-16.4,7-23.1c3.2-4.6,9.4-10,18.6-16.2-3.2-9.1-4.7-16.7-4.7-23s.7-9,2-12.6c.9-2.4,2.6-4.9,5.1-7.2,6.4-6,10.5-9.5,12.2-10.5,2.5-1.4,5.3-2.1,8.6-2.1,4.6,0,8.3,1.6,10.9,4.6,2.6,3.1,4,7.3,4,12.5,0,12.2-8,24.4-24,36.5,8.9,18.1,20.2,33.7,33.9,46.9,3.1-4.1,5.2-7.9,6.4-11.3,1.2-3.5,1.8-7.1,1.8-10.9s-.7-7.6-2-10.4c-.6-1.2-1.5-2.1-2.6-2.4-2-.6-6.5-.9-13.6-.8l-.4-1.3ZM2126.3,1344.9c-12.9-13-24.5-29.4-34.7-49.3-5.2,4-8.9,8.1-11,12.2-2.1,4.1-3.2,8.7-3.2,13.8,0,8.3,2.6,15.8,7.9,22.3,5.3,6.6,11.9,9.8,19.8,9.8s13.9-2.9,21.2-8.8ZM2100.1,1281.1c10-8.8,15-17.5,15-26s-.8-6.7-2.5-9c-1.7-2.2-3.8-3.4-6.4-3.4s-5.5,1.3-7.5,4c-1.9,2.7-2.9,6.7-2.9,12.2s1.4,13.5,4.3,22.2Z"/>
  </g>
  <g>
    <path class="cls-2" d="M1362.8,1440.8c-3.6,10.2-5.6,23.6-5.8,40.4h-13.4v-11.7c0-7.6-1.4-12.8-4.1-15.5-2.7-2.7-9.8-5.6-21.3-8.7s-23.6-4.6-36.3-4.6c-20.7,0-37,4-48.9,11.8-11.9,7.9-17.8,18-17.8,30.4s2.4,14.5,7.3,20.1c4.9,5.6,11.4,9.7,19.6,12.1,8.2,2.5,25.7,4.7,52.4,6.6,26.7,2,44.7,4.5,54.1,7.8,9.4,3.2,16.9,8.4,22.6,15.5,5.6,7.1,8.5,15.6,8.5,25.3,0,19.6-10.9,36.5-32.7,50.7s-50.8,21.2-87.1,21.2-25-1-37.6-2.9c-12.6-1.9-25.4-4.7-38.2-8.4,2.3-11.7,3.4-26.7,3.3-45.1h13.2v7.3c0,9.5.6,15.3,1.9,17.6,1.3,2.2,4.3,4.6,9.1,7.2,7.1,3.8,15.6,6.7,25.5,8.7,9.8,2,20.5,3,31.9,3,24.5,0,43.4-4.3,56.8-13,13.3-8.7,20-19.7,20-33.1s-2.3-14.4-6.8-19.8c-4.5-5.4-10.9-9.4-19.1-12.1s-23.3-4.6-45.3-6c-29.3-1.8-49.2-4.4-59.7-7.9s-18.7-9.1-24.7-16.6c-6-7.6-8.9-17-8.9-28.2,0-19,9.1-34.6,27.4-46.7,18.3-12.1,43.5-18.2,75.8-18.2s26,1,39,3.1c13,2.1,26.1,5.3,39.2,9.6Z"/>
    <path class="cls-2" d="M1455.7,1525.6l25.5-16.8c6-4.2,11.8-7.1,17.6-8.6,5.8-1.6,12.7-2.3,20.9-2.3,14.4,0,26.9,2.2,37.4,6.5,10.6,4.3,17.9,9.9,22,16.7,4.1,6.8,6.1,18.3,6.1,34.6l-1.2,43.3c0,9.8.5,17.5,1.6,23.1.4,2.3,1.5,4.1,3.2,5.3s5.5,2,11.4,2.3l14.8,1.2v8.5c-12.6-.7-24.8-1-36.7-1s-20.4.3-30.5,1c2.3-24.5,3.5-48.6,3.5-72.3s-1.3-26.7-4-32.4c-2.7-5.7-7.4-10.2-14.3-13.5-6.9-3.3-15.6-5-26.1-5s-20.5,1.9-29.4,5.8c-8.8,3.9-14.9,8.3-18.3,13.4-2.3,3.6-3.5,12.2-3.5,25.8v25.5c0,23.2.7,36.1,2.1,38.5,1.4,2.4,6.6,4,15.6,4.5l16.9,1.2v8.5c-20.2-.7-36.5-1-48.8-1s-29.6.3-50.4,1v-8.5l12.2-1.2c7.6-.7,12.4-1.5,14.4-2.4,1.9-.9,3.2-3.1,3.9-6.4.9-5.3,1.4-17.1,1.4-35.4v-98.8c0-26-.9-40.6-2.7-43.8-1.2-2.1-6.4-3.2-15.7-3.2h-13.4v-8.9c20.1-1.6,36.2-3.8,48.2-6.6l15.9-4.1c2.1,0,3.1,1,3.1,3.1l-.6,6-1.2,26.3c-.6,13.3-1,23.5-1,30.9v39.2Z"/>
    <path class="cls-2" d="M1886.2,1525.7l29.4-19.6c3.5-2.3,7.2-4,11.1-5.1,8.6-2.1,17.1-3.2,25.7-3.2,13.9,0,25.9,2.1,36,6.4,10.1,4.2,17.4,9.8,21.8,16.5,4.4,6.8,6.6,17.4,6.6,31.9l-.8,46.1c0,15.9.9,25.1,2.7,27.5,2.4,3.1,7.2,4.7,14.3,4.7h13.9v8.5c-13.8-.7-25.8-1-35.9-1s-20.4.3-31.6,1c2.5-19,3.7-44.8,3.7-77.2s-1.5-22.4-4.6-27.8c-3.1-5.5-8.2-9.9-15.4-13.2-7.2-3.3-15.9-5-26-5s-23.3,2.4-32,7.2c-8.8,4.8-14.2,10.1-16.3,15.8-1.3,3.8-1.9,13.8-1.9,29.9s.2,34.5.6,49.8c.1,4.6,1,7.5,2.7,8.6,3.3,2.2,8.6,3.4,16,3.4h13.9v8.5c-21.9-.7-39.4-1-52.4-1s-29.4.3-46.9,1v-8.5h14c9.6,0,15.2-1.7,16.8-5,1.6-3.4,2.4-23.6,2.4-60.8s-.3-29.7-.8-39.2c-.3-3.1-1.3-5.3-3.1-6.4-1.8-1.2-6.9-1.8-15.4-1.8h-14v-8.5c11.1-1,21.1-2.3,29.9-4,8.8-1.7,18.7-4.2,29.7-7.6,1.2-.4,2.3-.6,3.3-.6,2.1,0,3.1,1.1,3.1,3.4l-.2,5.6-.4,19.8Z"/>
    <path class="cls-2" d="M2095.9,1568.5c.6,19.2,7.2,33.8,19.6,43.8,12.4,10,28.7,14.9,48.9,14.9s18.1-1.1,27-3.4c8.9-2.2,17.8-5.6,26.6-10.1l3.3,2.2-6.2,12.3c-10.8,4.7-21.8,8.2-33.2,10.5-11.4,2.3-23.1,3.5-35.2,3.5-26.3,0-47.5-6.3-63.7-18.8-16.1-12.5-24.2-29.6-24.2-51s4.5-30.6,13.6-42.6c6-7.9,17-15.2,33.1-22,16.1-6.7,31.7-10.1,46.9-10.1,22.9,0,41.1,5.1,54.5,15.2,13.4,10.2,20.1,24.4,20.1,42.6l-.4,8.6c-8.5,1.6-16.7,2.6-24.5,3.1-13.8.8-33.1,1.2-57.7,1.2h-48.5ZM2096.3,1557.5c20.1.7,42.3,1,66.5,1s19.1-.3,28.2-1v-8.2c0-8.6-2.3-16.7-6.8-24.5-2.9-4.8-7.8-8.8-15-11.9-7.1-3.2-15.4-4.8-24.7-4.8-14.5,0-26.1,4-34.8,12-8.7,8-13.2,20.5-13.4,37.3Z"/>
  </g>
  <g>
    <path class="cls-1" d="M1861.3,1715.5l-.5-10.5c-3.4-2.3-6.9-4-10.6-5.2-3.7-1.1-7.6-1.7-11.6-1.7-10.3,0-18.5,3.2-24.7,9.6-6.2,6.4-9.3,15-9.3,25.8s1.6,14.3,4.7,20.2,7.6,10.6,13.4,14.1c5.8,3.5,11.9,5.2,18.3,5.2s10.1-.6,15.1-1.8c3.7-.9,7.5-2.8,11.2-5.6l1.2,1.2c-.8,1.8-1.5,3.6-2.2,5.5-4.5,2.3-8.9,4-13.4,5.1-4.5,1.2-9,1.7-13.6,1.7-9.4,0-17.6-1.9-24.7-5.6-7.1-3.7-12.5-8.9-16.4-15.4-3.8-6.6-5.7-14-5.7-22.3s1.9-15.7,5.8-22.2c3.8-6.5,9.3-11.6,16.3-15.2,7-3.6,15.6-5.4,25.9-5.4s11.6.9,18.8,2.7c3.6.9,6.5,1.5,8.7,1.9-1.7,4.2-2.7,10.1-3,17.8h-3.8Z"/>
    <path class="cls-1" d="M1893.5,1690.6c-.6,11.5-1,21.9-1,31.2v30.2c0,12,.2,18.8.7,20.4.3.8,1.5,1.4,3.8,1.6l4.9.5v3.4c-4.2-.3-8.1-.4-11.9-.4s-9.7.1-16.5.4v-3.4l4.9-.4c2.2-.2,3.4-.8,3.7-1.7.5-1.5.7-8.5.7-20.9v-41.4c0,0-.2-7.7-.2-7.7,0-1.9-.2-3.1-.6-3.5-.6-.6-1.9-.9-3.8-.9h-4.7v-3.5c7.9-.7,14.3-2.3,19-4.6l1,.7Z"/>
    <path class="cls-1" d="M1926.4,1720.8l1.4.9c-.3,2.9-.4,6.2-.5,9.7-.3,11.5-.4,19.9-.4,25.4s.2,9.5.5,13.1c.2,1.4.5,2.4,1.1,2.9.6.5,1.9,1,4.1,1.2l3.9.5v3.4c-5.6-.3-10.6-.4-15.2-.4s-9,.1-13.6.4v-3.4l4.9-.5c1.9-.2,3.1-.5,3.5-1.1.4-.6.7-2.5.8-5.7.2-5,.3-11.9.3-20.6s0-10.8-.3-14.1c0-1.2-.4-2.1-1-2.6s-1.9-.8-4-.8h-4.3v-3.4c4.6-.7,8.1-1.3,10.2-1.9,2.2-.6,5-1.6,8.5-3ZM1921.8,1694.8c1.7,0,3.3.7,4.5,2,1.3,1.3,1.9,2.9,1.9,4.7s-.6,3.4-1.9,4.7c-1.3,1.3-2.8,1.9-4.5,1.9s-3.3-.6-4.6-1.9c-1.3-1.3-1.9-2.9-1.9-4.7s.6-3.4,1.9-4.7c1.3-1.3,2.8-2,4.6-2Z"/>
    <path class="cls-1" d="M1959.4,1732.3l8.6-7.9c1-.9,2.1-1.6,3.3-2.1,2.5-.9,5-1.3,7.5-1.3,4.1,0,7.6.9,10.6,2.6,3,1.7,5.1,3.9,6.4,6.6,1.3,2.7,1.9,7,1.9,12.8l-.2,18.5c0,6.4.3,10.1.8,11.1.7,1.3,2.1,1.9,4.2,1.9h4.1v3.4c-4.1-.3-7.6-.4-10.5-.4s-6,.1-9.3.4c.7-7.6,1.1-18,1.1-31s-.4-9-1.3-11.2-2.4-4-4.5-5.3-4.7-2-7.6-2-6.8,1-9.4,2.9c-2.6,1.9-4.2,4-4.8,6.4-.4,1.5-.6,5.5-.6,12s0,13.8.2,20c0,1.8.3,3,.8,3.5,1,.9,2.5,1.4,4.7,1.4h4.1v3.4c-6.4-.3-11.6-.4-15.4-.4s-8.6.1-13.8.4v-3.4h4.1c2.8,0,4.5-.7,4.9-2,.5-1.4.7-9.5.7-24.4s0-11.9-.2-15.7c0-1.3-.4-2.1-.9-2.6-.5-.5-2-.7-4.5-.7h-4.1v-3.4c3.3-.4,6.2-.9,8.8-1.6,2.6-.7,5.5-1.7,8.7-3.1.3-.2.7-.2,1-.2.6,0,.9.5.9,1.4v2.2c0,0-.2,7.9-.2,7.9Z"/>
    <path class="cls-1" d="M2028.4,1720.8l1.4.9c-.3,2.9-.4,6.2-.5,9.7-.3,11.5-.4,19.9-.4,25.4s.2,9.5.5,13.1c.2,1.4.5,2.4,1.1,2.9.6.5,1.9,1,4.1,1.2l3.9.5v3.4c-5.6-.3-10.6-.4-15.2-.4s-9,.1-13.6.4v-3.4l4.9-.5c1.9-.2,3.1-.5,3.5-1.1.4-.6.7-2.5.8-5.7.2-5,.3-11.9.3-20.6s0-10.8-.3-14.1c0-1.2-.4-2.1-1-2.6-.6-.5-1.9-.8-4-.8h-4.3v-3.4c4.6-.7,8.1-1.3,10.2-1.9,2.2-.6,5-1.6,8.5-3ZM2023.9,1694.8c1.8,0,3.3.7,4.5,2,1.3,1.3,1.9,2.9,1.9,4.7s-.6,3.4-1.9,4.7-2.8,1.9-4.5,1.9-3.3-.6-4.6-1.9-1.9-2.9-1.9-4.7.6-3.4,1.9-4.7c1.3-1.3,2.8-2,4.6-2Z"/>
    <path class="cls-1" d="M2087,1769.6l1.5,1.4-2.3,3.8c-2.6,1.5-5.2,2.5-8,3.3s-5.5,1.1-8.4,1.1c-5.6,0-10.3-1.1-14.2-3.3-3.9-2.2-6.9-5.4-9-9.5-2.1-4.2-3.2-9.1-3.2-14.8s.8-9.5,2.5-13.2c1.6-3.7,3.9-6.7,6.9-8.8,2.9-2.1,6.6-4.2,11-6.2,3.1-1.5,6.6-2.2,10.4-2.2s5.5.2,7.6.7c2.1.5,4.4,1.4,6.8,2.6-1,5.2-1.5,10.4-1.5,15.6h-3.6v-2.9c0-2.5-.4-4.3-1.1-5.3-.7-1-2.3-2.1-4.8-3.1-2.5-1-5.3-1.5-8.2-1.5-5.1,0-9.1,1.6-11.9,4.8-2.8,3.2-4.2,8.1-4.2,14.5s2.1,14.9,6.2,19.9c3.7,4.5,8.4,6.8,14.3,6.8s4.5-.3,6.7-.9c2.2-.6,4.4-1.5,6.6-2.6Z"/>
  </g>
  <path class="cls-3" d="M2277.9,1249.1c67.3,218.5,25,460.8-105.4,647.7-128,194.2-340.2,327.8-571.7,359.9-296.2,44.3-611.7-85-790.3-326.3-172.5-232.2-196.9-541.5-68.8-800,54.5-115.9,140.9-214.6,243.7-290.1,442.6-326.4,1130-125.3,1292.5,408.8h0ZM2276.9,1249.4c-86.7-293-359.1-506.3-664.4-519.1-208.8-10.4-420.8,77.2-564.7,225.6-67.2,69.2-119.1,152.8-156.1,241.5-84.1,208.7-54.8,454.7,64.6,643.8,135.5,219.7,381.2,343.5,637.9,337.6,220.1-4.5,439.6-108.7,573.2-285.9,135.8-181.2,177.6-427.6,109.6-643.7h0Z"/>
  <image width="631" height="423" transform="translate(1497.7 1356.7) scale(.6 .7)" xlink:href="../../Downloads/file-removebg.png"/>
  <path class="cls-1" d="M1814,1291.2c16,18.2,16.7,47.7-3.3,63.4-20.4,16.3-50.8,10.6-67.2-8.7-22.4-26.4-12.1-66.3,23.4-72.7,17.5-2.7,35.8,4.7,47.1,18.1h0ZM1814,1291.2c-14.7-17.2-42.4-21.4-58.6-4.4-12.8,13.4-9.8,34.4,1.7,47.4,11.2,13.3,31.7,21,48.4,13.1,22-10.7,23.5-38.5,8.5-56.1h0Z"/>
</svg>